<mxfile host="app.diagrams.net" modified="2022-09-08T01:23:10.961Z" agent="5.0 (Windows NT 10.0; Win64; x64) AppleWebKit/537.36 (KHTML, like Gecko) Chrome/105.0.0.0 Safari/537.36 Edg/105.0.1343.27" etag="SCuUhVTLTWE38qojxiVY" version="20.3.0" type="github">
  <diagram id="f_8WaxEG8VQjkeISz4g5" name="Page-1">
    <mxGraphModel dx="1278" dy="579" grid="1" gridSize="10" guides="1" tooltips="1" connect="1" arrows="1" fold="1" page="1" pageScale="1" pageWidth="850" pageHeight="1100" math="0" shadow="0">
      <root>
        <mxCell id="0" />
        <mxCell id="1" parent="0" />
        <mxCell id="WvrI2P2R5cBZxCBu08u7-71" value="" style="swimlane;startSize=0;" vertex="1" parent="1">
          <mxGeometry x="840" y="280" width="300" height="330" as="geometry" />
        </mxCell>
        <mxCell id="WvrI2P2R5cBZxCBu08u7-72" value="kubelet" style="rounded=1;whiteSpace=wrap;html=1;" vertex="1" parent="WvrI2P2R5cBZxCBu08u7-71">
          <mxGeometry x="20" y="50" width="110" height="60" as="geometry" />
        </mxCell>
        <mxCell id="WvrI2P2R5cBZxCBu08u7-73" value="k-proxy" style="rounded=1;whiteSpace=wrap;html=1;" vertex="1" parent="WvrI2P2R5cBZxCBu08u7-71">
          <mxGeometry x="170" y="50" width="110" height="60" as="geometry" />
        </mxCell>
        <mxCell id="WvrI2P2R5cBZxCBu08u7-74" value="Pod&amp;nbsp;" style="shape=cylinder3;whiteSpace=wrap;html=1;boundedLbl=1;backgroundOutline=1;size=15;" vertex="1" parent="WvrI2P2R5cBZxCBu08u7-71">
          <mxGeometry x="20" y="150" width="60" height="80" as="geometry" />
        </mxCell>
        <mxCell id="WvrI2P2R5cBZxCBu08u7-75" value="Pod" style="shape=cylinder3;whiteSpace=wrap;html=1;boundedLbl=1;backgroundOutline=1;size=15;" vertex="1" parent="WvrI2P2R5cBZxCBu08u7-71">
          <mxGeometry x="100" y="150" width="60" height="80" as="geometry" />
        </mxCell>
        <mxCell id="WvrI2P2R5cBZxCBu08u7-76" value="Pod" style="shape=cylinder3;whiteSpace=wrap;html=1;boundedLbl=1;backgroundOutline=1;size=15;" vertex="1" parent="WvrI2P2R5cBZxCBu08u7-71">
          <mxGeometry x="220" y="150" width="60" height="80" as="geometry" />
        </mxCell>
        <mxCell id="WvrI2P2R5cBZxCBu08u7-77" value="&lt;b&gt;&lt;font style=&quot;font-size: 24px;&quot;&gt;...&lt;/font&gt;&lt;/b&gt;" style="text;html=1;strokeColor=none;fillColor=none;align=center;verticalAlign=middle;whiteSpace=wrap;rounded=0;" vertex="1" parent="WvrI2P2R5cBZxCBu08u7-71">
          <mxGeometry x="160" y="170" width="60" height="50" as="geometry" />
        </mxCell>
        <mxCell id="WvrI2P2R5cBZxCBu08u7-96" value="Node" style="text;html=1;strokeColor=none;fillColor=none;align=center;verticalAlign=middle;whiteSpace=wrap;rounded=0;fontSize=24;" vertex="1" parent="WvrI2P2R5cBZxCBu08u7-71">
          <mxGeometry x="120" y="10" width="60" height="30" as="geometry" />
        </mxCell>
        <mxCell id="WvrI2P2R5cBZxCBu08u7-1" value="" style="swimlane;startSize=0;" vertex="1" parent="1">
          <mxGeometry x="60" y="60" width="300" height="400" as="geometry" />
        </mxCell>
        <mxCell id="WvrI2P2R5cBZxCBu08u7-61" value="cv" style="triangle;whiteSpace=wrap;html=1;" vertex="1" parent="WvrI2P2R5cBZxCBu08u7-1">
          <mxGeometry x="182.5" y="155" width="65" height="90" as="geometry" />
        </mxCell>
        <mxCell id="WvrI2P2R5cBZxCBu08u7-60" value="Scheduler" style="shape=process;whiteSpace=wrap;html=1;backgroundOutline=1;" vertex="1" parent="WvrI2P2R5cBZxCBu08u7-1">
          <mxGeometry x="155" y="300" width="120" height="60" as="geometry" />
        </mxCell>
        <mxCell id="WvrI2P2R5cBZxCBu08u7-59" value="Scheduler" style="shape=process;whiteSpace=wrap;html=1;backgroundOutline=1;" vertex="1" parent="WvrI2P2R5cBZxCBu08u7-1">
          <mxGeometry x="160" y="300" width="120" height="60" as="geometry" />
        </mxCell>
        <mxCell id="WvrI2P2R5cBZxCBu08u7-55" value="controller &lt;br&gt;manager" style="rounded=1;whiteSpace=wrap;html=1;" vertex="1" parent="WvrI2P2R5cBZxCBu08u7-1">
          <mxGeometry x="10" y="30" width="110" height="60" as="geometry" />
        </mxCell>
        <mxCell id="WvrI2P2R5cBZxCBu08u7-39" value="controller &lt;br&gt;manager" style="rounded=1;whiteSpace=wrap;html=1;" vertex="1" parent="WvrI2P2R5cBZxCBu08u7-1">
          <mxGeometry x="15" y="30" width="110" height="60" as="geometry" />
        </mxCell>
        <mxCell id="WvrI2P2R5cBZxCBu08u7-36" value="cv" style="triangle;whiteSpace=wrap;html=1;" vertex="1" parent="WvrI2P2R5cBZxCBu08u7-1">
          <mxGeometry x="187.5" y="155" width="65" height="90" as="geometry" />
        </mxCell>
        <mxCell id="WvrI2P2R5cBZxCBu08u7-2" value="controller &lt;br&gt;manager" style="rounded=1;whiteSpace=wrap;html=1;" vertex="1" parent="WvrI2P2R5cBZxCBu08u7-1">
          <mxGeometry x="20" y="30" width="110" height="60" as="geometry" />
        </mxCell>
        <mxCell id="WvrI2P2R5cBZxCBu08u7-6" value="etcd" style="shape=dataStorage;whiteSpace=wrap;html=1;fixedSize=1;" vertex="1" parent="WvrI2P2R5cBZxCBu08u7-1">
          <mxGeometry x="25" y="290" width="100" height="80" as="geometry" />
        </mxCell>
        <mxCell id="WvrI2P2R5cBZxCBu08u7-7" value="api" style="triangle;whiteSpace=wrap;html=1;" vertex="1" parent="WvrI2P2R5cBZxCBu08u7-1">
          <mxGeometry x="192.5" y="155" width="65" height="90" as="geometry" />
        </mxCell>
        <mxCell id="WvrI2P2R5cBZxCBu08u7-8" value="Scheduler" style="shape=process;whiteSpace=wrap;html=1;backgroundOutline=1;" vertex="1" parent="WvrI2P2R5cBZxCBu08u7-1">
          <mxGeometry x="165" y="300" width="120" height="60" as="geometry" />
        </mxCell>
        <mxCell id="WvrI2P2R5cBZxCBu08u7-10" value="" style="endArrow=classic;html=1;rounded=0;entryX=0.5;entryY=1;entryDx=0;entryDy=0;exitX=0;exitY=0.25;exitDx=0;exitDy=0;" edge="1" parent="WvrI2P2R5cBZxCBu08u7-1" source="WvrI2P2R5cBZxCBu08u7-61" target="WvrI2P2R5cBZxCBu08u7-2">
          <mxGeometry width="50" height="50" relative="1" as="geometry">
            <mxPoint x="180" y="177.5" as="sourcePoint" />
            <mxPoint x="160" y="170" as="targetPoint" />
          </mxGeometry>
        </mxCell>
        <mxCell id="WvrI2P2R5cBZxCBu08u7-11" value="" style="endArrow=classic;html=1;rounded=0;entryX=0.5;entryY=0;entryDx=0;entryDy=0;startArrow=none;exitX=0;exitY=0.75;exitDx=0;exitDy=0;" edge="1" parent="WvrI2P2R5cBZxCBu08u7-1" source="WvrI2P2R5cBZxCBu08u7-61" target="WvrI2P2R5cBZxCBu08u7-6">
          <mxGeometry width="50" height="50" relative="1" as="geometry">
            <mxPoint x="180" y="222.5" as="sourcePoint" />
            <mxPoint x="52.5" y="130" as="targetPoint" />
          </mxGeometry>
        </mxCell>
        <mxCell id="WvrI2P2R5cBZxCBu08u7-9" value="" style="endArrow=classic;html=1;rounded=0;exitX=0.5;exitY=1;exitDx=0;exitDy=0;entryX=0.5;entryY=0;entryDx=0;entryDy=0;" edge="1" parent="WvrI2P2R5cBZxCBu08u7-1" source="WvrI2P2R5cBZxCBu08u7-7" target="WvrI2P2R5cBZxCBu08u7-8">
          <mxGeometry width="50" height="50" relative="1" as="geometry">
            <mxPoint x="440" y="280" as="sourcePoint" />
            <mxPoint x="490" y="230" as="targetPoint" />
          </mxGeometry>
        </mxCell>
        <mxCell id="WvrI2P2R5cBZxCBu08u7-12" value="" style="endArrow=none;dashed=1;html=1;rounded=0;entryX=0.5;entryY=1;entryDx=0;entryDy=0;exitX=0.5;exitY=0;exitDx=0;exitDy=0;" edge="1" parent="WvrI2P2R5cBZxCBu08u7-1" source="WvrI2P2R5cBZxCBu08u7-7">
          <mxGeometry width="50" height="50" relative="1" as="geometry">
            <mxPoint x="440" y="280" as="sourcePoint" />
            <mxPoint x="225" y="90" as="targetPoint" />
          </mxGeometry>
        </mxCell>
        <mxCell id="WvrI2P2R5cBZxCBu08u7-56" value="controller &lt;br&gt;manager" style="rounded=1;whiteSpace=wrap;html=1;" vertex="1" parent="WvrI2P2R5cBZxCBu08u7-1">
          <mxGeometry x="165" y="30" width="110" height="60" as="geometry" />
        </mxCell>
        <mxCell id="WvrI2P2R5cBZxCBu08u7-57" value="controller &lt;br&gt;manager" style="rounded=1;whiteSpace=wrap;html=1;" vertex="1" parent="WvrI2P2R5cBZxCBu08u7-1">
          <mxGeometry x="170" y="30" width="110" height="60" as="geometry" />
        </mxCell>
        <mxCell id="WvrI2P2R5cBZxCBu08u7-58" value="cloud controller &lt;br&gt;manager" style="rounded=1;whiteSpace=wrap;html=1;" vertex="1" parent="WvrI2P2R5cBZxCBu08u7-1">
          <mxGeometry x="175" y="30" width="110" height="60" as="geometry" />
        </mxCell>
        <mxCell id="WvrI2P2R5cBZxCBu08u7-13" value="Cloud&lt;br&gt;provider&lt;br&gt;API" style="ellipse;shape=cloud;whiteSpace=wrap;html=1;" vertex="1" parent="1">
          <mxGeometry x="440" y="60" width="160" height="110" as="geometry" />
        </mxCell>
        <mxCell id="WvrI2P2R5cBZxCBu08u7-14" value="" style="endArrow=classic;html=1;rounded=0;exitX=1;exitY=0.5;exitDx=0;exitDy=0;entryX=0.16;entryY=0.55;entryDx=0;entryDy=0;entryPerimeter=0;" edge="1" parent="1" target="WvrI2P2R5cBZxCBu08u7-13">
          <mxGeometry width="50" height="50" relative="1" as="geometry">
            <mxPoint x="340" y="120" as="sourcePoint" />
            <mxPoint x="550" y="280" as="targetPoint" />
          </mxGeometry>
        </mxCell>
        <mxCell id="WvrI2P2R5cBZxCBu08u7-15" value="" style="swimlane;startSize=0;" vertex="1" parent="1">
          <mxGeometry x="450" y="280" width="310" height="330" as="geometry" />
        </mxCell>
        <mxCell id="WvrI2P2R5cBZxCBu08u7-17" value="kubelet" style="rounded=1;whiteSpace=wrap;html=1;" vertex="1" parent="WvrI2P2R5cBZxCBu08u7-15">
          <mxGeometry x="20" y="50" width="110" height="60" as="geometry" />
        </mxCell>
        <mxCell id="WvrI2P2R5cBZxCBu08u7-18" value="k-proxy" style="rounded=1;whiteSpace=wrap;html=1;" vertex="1" parent="WvrI2P2R5cBZxCBu08u7-15">
          <mxGeometry x="170" y="50" width="110" height="60" as="geometry" />
        </mxCell>
        <mxCell id="WvrI2P2R5cBZxCBu08u7-66" value="Pod&amp;nbsp;" style="shape=cylinder3;whiteSpace=wrap;html=1;boundedLbl=1;backgroundOutline=1;size=15;" vertex="1" parent="WvrI2P2R5cBZxCBu08u7-15">
          <mxGeometry x="20" y="150" width="60" height="80" as="geometry" />
        </mxCell>
        <mxCell id="WvrI2P2R5cBZxCBu08u7-67" value="Pod" style="shape=cylinder3;whiteSpace=wrap;html=1;boundedLbl=1;backgroundOutline=1;size=15;" vertex="1" parent="WvrI2P2R5cBZxCBu08u7-15">
          <mxGeometry x="100" y="150" width="60" height="80" as="geometry" />
        </mxCell>
        <mxCell id="WvrI2P2R5cBZxCBu08u7-68" value="Pod" style="shape=cylinder3;whiteSpace=wrap;html=1;boundedLbl=1;backgroundOutline=1;size=15;" vertex="1" parent="WvrI2P2R5cBZxCBu08u7-15">
          <mxGeometry x="220" y="150" width="60" height="80" as="geometry" />
        </mxCell>
        <mxCell id="WvrI2P2R5cBZxCBu08u7-69" value="&lt;b&gt;&lt;font style=&quot;font-size: 24px;&quot;&gt;...&lt;/font&gt;&lt;/b&gt;" style="text;html=1;strokeColor=none;fillColor=none;align=center;verticalAlign=middle;whiteSpace=wrap;rounded=0;" vertex="1" parent="WvrI2P2R5cBZxCBu08u7-15">
          <mxGeometry x="160" y="170" width="60" height="50" as="geometry" />
        </mxCell>
        <mxCell id="WvrI2P2R5cBZxCBu08u7-95" value="Node" style="text;html=1;strokeColor=none;fillColor=none;align=center;verticalAlign=middle;whiteSpace=wrap;rounded=0;fontSize=24;" vertex="1" parent="WvrI2P2R5cBZxCBu08u7-15">
          <mxGeometry x="125" y="10" width="60" height="30" as="geometry" />
        </mxCell>
        <mxCell id="WvrI2P2R5cBZxCBu08u7-70" style="edgeStyle=orthogonalEdgeStyle;rounded=0;orthogonalLoop=1;jettySize=auto;html=1;exitX=0;exitY=0.5;exitDx=0;exitDy=0;fontSize=24;" edge="1" parent="1" source="WvrI2P2R5cBZxCBu08u7-17">
          <mxGeometry relative="1" as="geometry">
            <mxPoint x="290" y="280" as="targetPoint" />
            <Array as="points">
              <mxPoint x="420" y="360" />
              <mxPoint x="420" y="280" />
              <mxPoint x="318" y="280" />
            </Array>
          </mxGeometry>
        </mxCell>
        <mxCell id="WvrI2P2R5cBZxCBu08u7-85" value="" style="swimlane;startSize=0;" vertex="1" parent="1">
          <mxGeometry x="1220" y="280" width="300" height="330" as="geometry" />
        </mxCell>
        <mxCell id="WvrI2P2R5cBZxCBu08u7-86" value="kubelet" style="rounded=1;whiteSpace=wrap;html=1;" vertex="1" parent="WvrI2P2R5cBZxCBu08u7-85">
          <mxGeometry x="20" y="50" width="110" height="60" as="geometry" />
        </mxCell>
        <mxCell id="WvrI2P2R5cBZxCBu08u7-87" value="k-proxy" style="rounded=1;whiteSpace=wrap;html=1;" vertex="1" parent="WvrI2P2R5cBZxCBu08u7-85">
          <mxGeometry x="170" y="50" width="110" height="60" as="geometry" />
        </mxCell>
        <mxCell id="WvrI2P2R5cBZxCBu08u7-88" value="Pod&amp;nbsp;" style="shape=cylinder3;whiteSpace=wrap;html=1;boundedLbl=1;backgroundOutline=1;size=15;" vertex="1" parent="WvrI2P2R5cBZxCBu08u7-85">
          <mxGeometry x="20" y="150" width="60" height="80" as="geometry" />
        </mxCell>
        <mxCell id="WvrI2P2R5cBZxCBu08u7-89" value="Pod" style="shape=cylinder3;whiteSpace=wrap;html=1;boundedLbl=1;backgroundOutline=1;size=15;" vertex="1" parent="WvrI2P2R5cBZxCBu08u7-85">
          <mxGeometry x="100" y="150" width="60" height="80" as="geometry" />
        </mxCell>
        <mxCell id="WvrI2P2R5cBZxCBu08u7-90" value="Pod" style="shape=cylinder3;whiteSpace=wrap;html=1;boundedLbl=1;backgroundOutline=1;size=15;" vertex="1" parent="WvrI2P2R5cBZxCBu08u7-85">
          <mxGeometry x="220" y="150" width="60" height="80" as="geometry" />
        </mxCell>
        <mxCell id="WvrI2P2R5cBZxCBu08u7-91" value="&lt;b&gt;&lt;font style=&quot;font-size: 24px;&quot;&gt;...&lt;/font&gt;&lt;/b&gt;" style="text;html=1;strokeColor=none;fillColor=none;align=center;verticalAlign=middle;whiteSpace=wrap;rounded=0;" vertex="1" parent="WvrI2P2R5cBZxCBu08u7-85">
          <mxGeometry x="160" y="170" width="60" height="50" as="geometry" />
        </mxCell>
        <mxCell id="WvrI2P2R5cBZxCBu08u7-100" value="Node" style="text;html=1;strokeColor=none;fillColor=none;align=center;verticalAlign=middle;whiteSpace=wrap;rounded=0;fontSize=24;" vertex="1" parent="WvrI2P2R5cBZxCBu08u7-85">
          <mxGeometry x="120" y="10" width="60" height="30" as="geometry" />
        </mxCell>
        <mxCell id="WvrI2P2R5cBZxCBu08u7-101" style="edgeStyle=orthogonalEdgeStyle;rounded=0;orthogonalLoop=1;jettySize=auto;html=1;exitX=0;exitY=0.5;exitDx=0;exitDy=0;entryX=1;entryY=0.5;entryDx=0;entryDy=0;fontSize=24;" edge="1" parent="1" source="WvrI2P2R5cBZxCBu08u7-72" target="WvrI2P2R5cBZxCBu08u7-7">
          <mxGeometry relative="1" as="geometry">
            <Array as="points">
              <mxPoint x="800" y="360" />
              <mxPoint x="800" y="260" />
            </Array>
          </mxGeometry>
        </mxCell>
        <mxCell id="WvrI2P2R5cBZxCBu08u7-102" style="edgeStyle=orthogonalEdgeStyle;rounded=0;orthogonalLoop=1;jettySize=auto;html=1;exitX=0;exitY=0.5;exitDx=0;exitDy=0;fontSize=24;" edge="1" parent="1" source="WvrI2P2R5cBZxCBu08u7-86">
          <mxGeometry relative="1" as="geometry">
            <mxPoint x="290" y="240" as="targetPoint" />
            <Array as="points">
              <mxPoint x="1180" y="360" />
              <mxPoint x="1180" y="241" />
            </Array>
          </mxGeometry>
        </mxCell>
        <mxCell id="WvrI2P2R5cBZxCBu08u7-94" value="" style="shape=flexArrow;endArrow=classic;startArrow=classic;html=1;rounded=0;fontSize=24;" edge="1" parent="1">
          <mxGeometry width="100" height="100" relative="1" as="geometry">
            <mxPoint x="480" y="560" as="sourcePoint" />
            <mxPoint x="1500" y="560" as="targetPoint" />
          </mxGeometry>
        </mxCell>
        <mxCell id="WvrI2P2R5cBZxCBu08u7-103" value="&lt;font style=&quot;font-size: 14px;&quot;&gt;Plugin Network (Flannel, Weavnet, etc)&lt;/font&gt;" style="edgeLabel;html=1;align=center;verticalAlign=middle;resizable=0;points=[];fontSize=24;" vertex="1" connectable="0" parent="WvrI2P2R5cBZxCBu08u7-94">
          <mxGeometry x="0.0835" y="4" relative="1" as="geometry">
            <mxPoint x="-43" as="offset" />
          </mxGeometry>
        </mxCell>
      </root>
    </mxGraphModel>
  </diagram>
</mxfile>
